<svg width="80" height="80" viewBox="0 0 80 80" fill="none" xmlns="http://www.w3.org/2000/svg">
<path d="M40 22.8125C38.85 22.8125 37.9166 21.8792 37.9166 20.7292V17.0833C37.9166 15.9333 38.85 15 40 15C41.15 15 42.0833 15.9333 42.0833 17.0833V20.7292C42.0833 21.8792 41.15 22.8125 40 22.8125Z" fill="#292B5C"/>
<path d="M40 65C38.85 65 37.9166 64.0667 37.9166 62.9167V51.4583C37.9166 50.3083 38.85 49.375 40 49.375C41.15 49.375 42.0833 50.3083 42.0833 51.4583V62.9167C42.0833 64.0667 41.15 65 40 65Z" fill="#292B5C"/>
<path d="M49.3729 65C49.0021 65 48.6271 64.9021 48.2875 64.6958L38.9125 58.9667C37.9313 58.3667 37.6209 57.0833 38.2209 56.1021C38.8209 55.1187 40.1042 54.8125 41.0854 55.4104L50.4604 61.1396C51.4417 61.7396 51.7521 63.0229 51.1521 64.0042C50.7604 64.6458 50.075 65 49.3729 65Z" fill="#292B5C"/>
<path d="M30.6271 65C29.925 65 29.2396 64.6458 28.8479 64.0021C28.2479 63.0208 28.5583 61.7375 29.5396 61.1375L38.9146 55.4083C39.8958 54.8104 41.1792 55.1167 41.7792 56.1C42.3792 57.0812 42.0688 58.3646 41.0875 58.9646L31.7125 64.6937C31.3729 64.9021 30.9979 65 30.6271 65V65Z" fill="#292B5C"/>
<path d="M61.3542 19.1667H18.6458C16.6354 19.1667 15 20.8021 15 22.8125V48.8542C15 50.8646 16.6354 52.5 18.6458 52.5H61.3542C63.3646 52.5 65 50.8646 65 48.8542V22.8125C65 20.8021 63.3646 19.1667 61.3542 19.1667ZM42.0833 26.9792C42.0833 26.125 42.7917 25.4167 43.6458 25.4167H48.8542C49.7083 25.4167 50.4167 26.125 50.4167 26.9792V41.0417H42.0833V26.9792ZM29.5833 35.3125C29.5833 34.4583 30.2917 33.75 31.1458 33.75H36.3542C37.2083 33.75 37.9167 34.4583 37.9167 35.3125V41.0417H29.5833V35.3125ZM50.9375 46.25H29.0625C28.2 46.25 27.5 45.55 27.5 44.6875C27.5 43.825 28.2 43.125 29.0625 43.125H50.9375C51.8 43.125 52.5 43.825 52.5 44.6875C52.5 45.55 51.8 46.25 50.9375 46.25Z" fill="#292B5C"/>
</svg>
