<svg width="20" height="18" viewBox="0 0 20 18" fill="none" xmlns="http://www.w3.org/2000/svg">
<path fill-rule="evenodd" clip-rule="evenodd" d="M9.99997 0.733124L19.6139 8.21063C20.0499 8.5497 20.1284 9.17798 19.7893 9.61393C19.4503 10.0499 18.822 10.1284 18.386 9.78934L17 8.71131V17C17 17.5523 16.5523 18 16 18H4C3.44772 18 3 17.5523 3 17V8.71128L1.61393 9.78934C1.17798 10.1284 0.549704 10.0499 0.210633 9.61393C-0.128437 9.17798 -0.0499032 8.5497 0.386044 8.21063L9.99997 0.733124ZM9 16H11V12H9V16ZM13 16V10H7V16H5V7.72226L10 3.59369L15 7.72226V16H13Z" fill="#1B2132"/>
</svg>
