<svg width="16" height="15" viewBox="0 0 16 15" fill="none" xmlns="http://www.w3.org/2000/svg">
<path fill-rule="evenodd" clip-rule="evenodd" d="M13.5 13C13.7761 13 14 12.7761 14 12.5V4.5C14 4.22385 13.7761 4 13.5 4L2.5 4C2.22386 4 2 4.22385 2 4.5L2 12.5C2 12.7761 2.22386 13 2.5 13L13.5 13ZM4.80825e-07 14C5.04967e-07 14.5523 0.447716 15 1 15L15 15C15.5523 15 16 14.5523 16 14V3C16 2.44771 15.5523 2 15 2L1 2C0.447715 2 -2.41412e-08 2.44771 0 3L4.80825e-07 14Z" fill="#1B2132"/>
<path d="M4 0H6V6H4V0Z" fill="#1B2132"/>
<path d="M10 0H12V6H10V0Z" fill="#1B2132"/>
</svg>
